<svg width="24" height="24" viewBox="0 0 24 24" xmlns="http://www.w3.org/2000/svg">
    <path d="m2.062 12.26-.019-.06a.744.744 0 0 1-.004-.014l-.001-.008-.003-.012a.748.748 0 0 1-.015-.097l-.002-.013-.001-.037v-.047l.005-.062v-.003l.001-.009a.746.746 0 0 1 .025-.113l.014-.042.004-.01a.746.746 0 0 1 .026-.063l.01-.02.008-.014a.75.75 0 0 1 .02-.032l.018-.029.015-.02a.753.753 0 0 1 .03-.038l.022-.025.01-.012.03-.029 7.758-7.525a.75.75 0 0 1 1.119.994l-.074.083-6.444 6.246 16.886.001a.75.75 0 0 1 .102 1.493l-.102.007H4.616l6.442 6.247a.75.75 0 0 1-.96 1.148l-.085-.071-7.769-7.536-.016-.016a.754.754 0 0 1-.09-.113l-.012-.019a.749.749 0 0 1-.027-.047l-.013-.027-.005-.01a.745.745 0 0 1-.006-.014l-.013-.033z" fill="#060B11" fill-rule="evenodd"/>
</svg>
